<svg width="30" height="29" viewBox="0 0 30 29" fill="none" xmlns="http://www.w3.org/2000/svg">
<path d="M1.21835 7.06645H0.609177C0.268038 7.06645 0 6.79841 0 6.45727V0.609177C0 0.268038 0.268038 0 0.609177 0H6.51819C6.85933 0 7.12737 0.268038 7.12737 0.609177V1.21835C7.12737 1.55949 6.85933 1.82753 6.51819 1.82753H2.43671C2.09557 1.82753 1.82753 2.09557 1.82753 2.43671V6.45727C1.82753 6.79841 1.55949 7.06645 1.21835 7.06645Z" fill="#0923A8"/>
<path d="M6.51819 29H0.609177C0.268038 29 0 28.732 0 28.3909V22.5428C0 22.2016 0.268038 21.9336 0.609177 21.9336H1.21835C1.55949 21.9336 1.82753 22.2016 1.82753 22.5428V26.5633C1.82753 26.9045 2.09557 27.1725 2.43671 27.1725H6.51819C6.85933 27.1725 7.12737 27.4406 7.12737 27.7817V28.3909C7.12737 28.732 6.85933 29 6.51819 29Z" fill="#0923A8"/>
<path d="M28.3924 7.06645H27.7833C27.4421 7.06645 27.1741 6.79841 27.1741 6.45727V2.43671C27.1741 2.09557 26.9061 1.82753 26.5649 1.82753H22.6053C22.2641 1.82753 21.9961 1.55949 21.9961 1.21835V0.609177C21.9961 0.268038 22.2641 0 22.6053 0H28.3924C28.7336 0 29.0016 0.268038 29.0016 0.609177V6.45727C29.0016 6.79841 28.7336 7.06645 28.3924 7.06645Z" fill="#0923A8"/>
<path d="M28.3924 29H22.6053C22.2641 29 21.9961 28.732 21.9961 28.3909V27.7817C21.9961 27.4406 22.2641 27.1725 22.6053 27.1725H26.5649C26.9061 27.1725 27.1741 26.9045 27.1741 26.5633V22.5428C27.1741 22.2016 27.4421 21.9336 27.7833 21.9336H28.3924C28.7336 21.9336 29.0016 22.2016 29.0016 22.5428V28.3909C29.0016 28.732 28.7336 29 28.3924 29Z" fill="#0923A8"/>
<path d="M21.1178 7.875V20.9889H8.00391V7.875H21.1178Z" fill="#0923A8" fill-opacity="0.15" stroke="#0923A8" stroke-width="1.75"/>
</svg>
