<svg width="27" height="27" viewBox="0 0 27 27" fill="none" xmlns="http://www.w3.org/2000/svg">
<path d="M16.0605 10.9404C15.3737 10.2536 14.4621 9.87896 13.488 9.87896C12.5139 9.87896 11.6023 10.2536 10.9155 10.9404C10.2286 11.6273 9.85398 12.5389 9.85398 13.513C9.85398 14.487 10.2286 15.3987 10.9155 16.0855C11.6023 16.7723 12.5139 17.147 13.488 17.147C13.975 17.147 14.4496 17.0471 14.8742 16.8722C15.3112 16.6974 15.7109 16.4227 16.048 16.0855C16.7349 15.3987 17.1095 14.487 17.1095 13.513C17.1095 12.5389 16.7474 11.6273 16.0605 10.9404ZM15.1239 14.1748C15.0365 14.3871 14.9116 14.5744 14.7368 14.7493C14.3996 15.0865 13.9625 15.2613 13.488 15.2613C13.0134 15.2613 12.5764 15.074 12.2392 14.7493C11.902 14.4121 11.7272 13.975 11.7272 13.5005C11.7272 13.0259 11.9145 12.5889 12.2392 12.2517C12.5764 11.9145 13.0134 11.7397 13.488 11.7397C13.9625 11.7397 14.3996 11.927 14.7368 12.2517C15.074 12.5889 15.2488 13.0259 15.2488 13.5005C15.2488 13.7377 15.2113 13.9625 15.1239 14.1748ZM16.0605 10.9404C15.3737 10.2536 14.4621 9.87896 13.488 9.87896C12.5139 9.87896 11.6023 10.2536 10.9155 10.9404C10.2286 11.6273 9.85398 12.5389 9.85398 13.513C9.85398 14.487 10.2286 15.3987 10.9155 16.0855C11.6023 16.7723 12.5139 17.147 13.488 17.147C13.975 17.147 14.4496 17.0471 14.8742 16.8722C15.3112 16.6974 15.7109 16.4227 16.048 16.0855C16.7349 15.3987 17.1095 14.487 17.1095 13.513C17.1095 12.5389 16.7474 11.6273 16.0605 10.9404ZM15.1239 14.1748C15.0365 14.3871 14.9116 14.5744 14.7368 14.7493C14.3996 15.0865 13.9625 15.2613 13.488 15.2613C13.0134 15.2613 12.5764 15.074 12.2392 14.7493C11.902 14.4121 11.7272 13.975 11.7272 13.5005C11.7272 13.0259 11.9145 12.5889 12.2392 12.2517C12.5764 11.9145 13.0134 11.7397 13.488 11.7397C13.9625 11.7397 14.3996 11.927 14.7368 12.2517C15.074 12.5889 15.2488 13.0259 15.2488 13.5005C15.2488 13.7377 15.2113 13.9625 15.1239 14.1748ZM26.7128 0.275688C26.438 0.000951717 26.0259 -0.0739763 25.6763 0.0758797L8.0682 7.55619C7.8559 7.64361 7.68107 7.79346 7.58117 8.00576L7.56868 8.03073L0.0758797 25.6888C-0.0739763 26.0509 0.000951717 26.4505 0.275688 26.7253C0.463008 26.9126 0.70028 27 0.95004 27C1.07492 27 1.1998 26.975 1.32468 26.9251L18.9328 19.4448C19.1076 19.3698 19.2574 19.2574 19.3573 19.0951L19.4073 19.0202L26.9251 1.31219C27.0749 0.962527 26.9875 0.550424 26.7128 0.275688ZM17.8588 17.8713L2.67338 24.3151L9.11719 9.12968L24.3026 2.68587L17.8588 17.8713ZM13.488 17.1345C13.975 17.1345 14.4496 17.0346 14.8742 16.8597C15.3112 16.6849 15.7109 16.4102 16.048 16.073C16.7349 15.3862 17.1095 14.4745 17.1095 13.5005C17.1095 12.5264 16.7349 11.6148 16.048 10.9279C15.3612 10.2411 14.4496 9.86647 13.4755 9.86647C12.5014 9.86647 11.5898 10.2411 10.903 10.9279C10.2161 11.6148 9.84149 12.5264 9.84149 13.5005C9.84149 14.4745 10.2161 15.3862 10.903 16.073C11.6148 16.7598 12.5264 17.1345 13.488 17.1345ZM12.2517 12.2642C12.5889 11.927 13.0259 11.7522 13.5005 11.7522C13.975 11.7522 14.4121 11.9395 14.7493 12.2642C15.0865 12.6013 15.2613 13.0384 15.2613 13.513C15.2613 13.7502 15.2113 13.975 15.1239 14.1873C15.0365 14.3996 14.9116 14.5869 14.7368 14.7618C14.3996 15.0989 13.9625 15.2738 13.488 15.2738C13.0134 15.2738 12.5764 15.0865 12.2392 14.7618C11.902 14.4246 11.7272 13.9875 11.7272 13.513C11.7272 13.0384 11.9145 12.5889 12.2517 12.2642Z" fill="#0923A8"/>
<path d="M9.11959 9.1274L2.67578 24.3128L17.8612 17.869L24.305 2.68359L9.11959 9.1274ZM16.0629 16.0707C15.7257 16.4204 15.3261 16.6826 14.889 16.8575C14.452 17.0448 13.9899 17.1322 13.5029 17.1322C12.5288 17.1322 11.6172 16.7576 10.9303 16.0707C10.2435 15.3839 9.86887 14.4723 9.86887 13.4982C9.86887 12.5241 10.2435 11.6125 10.9303 10.9257C11.6172 10.2388 12.5288 9.86419 13.5029 9.86419C14.4769 9.86419 15.3886 10.2388 16.0754 10.9257C16.7622 11.6125 17.1369 12.5241 17.1369 13.4982C17.1369 14.4723 16.7498 15.3839 16.0629 16.0707Z" fill="#0923A8" fill-opacity="0.15"/>
<path d="M16.0581 10.9404C15.3713 10.2535 14.4596 9.87891 13.4856 9.87891C12.5115 9.87891 11.5999 10.2535 10.913 10.9404C10.2262 11.6272 9.85156 12.5388 9.85156 13.5129C9.85156 14.487 10.2262 15.3986 10.913 16.0854C11.5999 16.7723 12.5115 17.1469 13.4856 17.1469C13.9726 17.1469 14.4471 17.047 14.8717 16.8722C15.3088 16.6974 15.7084 16.4226 16.0456 16.0854C16.7324 15.3986 17.1071 14.487 17.1071 13.5129C17.1071 12.5388 16.7449 11.6272 16.0581 10.9404ZM15.1215 14.1748C15.0341 14.3871 14.9092 14.5744 14.7344 14.7492C14.3972 15.0864 13.9601 15.2612 13.4856 15.2612C13.011 15.2612 12.5739 15.0739 12.2368 14.7492C11.8996 14.412 11.7248 13.975 11.7248 13.5004C11.7248 13.0259 11.9121 12.5888 12.2368 12.2516C12.5739 11.9144 13.011 11.7396 13.4856 11.7396C13.9601 11.7396 14.3972 11.9269 14.7344 12.2516C15.0715 12.5888 15.2464 13.0259 15.2464 13.5004C15.2464 13.7377 15.2089 13.9625 15.1215 14.1748Z" fill="#FF0000"/>
<path d="M16.0581 10.9404C15.3713 10.2535 14.4596 9.87891 13.4856 9.87891C12.5115 9.87891 11.5999 10.2535 10.913 10.9404C10.2262 11.6272 9.85156 12.5388 9.85156 13.5129C9.85156 14.487 10.2262 15.3986 10.913 16.0854C11.5999 16.7723 12.5115 17.1469 13.4856 17.1469C13.9726 17.1469 14.4471 17.047 14.8717 16.8722C15.3088 16.6974 15.7084 16.4226 16.0456 16.0854C16.7324 15.3986 17.1071 14.487 17.1071 13.5129C17.1071 12.5388 16.7449 11.6272 16.0581 10.9404ZM15.1215 14.1748C15.0341 14.3871 14.9092 14.5744 14.7344 14.7492C14.3972 15.0864 13.9601 15.2612 13.4856 15.2612C13.011 15.2612 12.5739 15.0739 12.2368 14.7492C11.8996 14.412 11.7248 13.975 11.7248 13.5004C11.7248 13.0259 11.9121 12.5888 12.2368 12.2516C12.5739 11.9144 13.011 11.7396 13.4856 11.7396C13.9601 11.7396 14.3972 11.9269 14.7344 12.2516C15.0715 12.5888 15.2464 13.0259 15.2464 13.5004C15.2464 13.7377 15.2089 13.9625 15.1215 14.1748Z" fill="#0923A8"/>
</svg>
