<svg width="170" height="63" viewBox="0 0 170 63" fill="none" xmlns="http://www.w3.org/2000/svg">
<path opacity="0.15" d="M30.9289 5.26462C27.6539 2.01136 23.1151 0 18.1143 0C8.11271 0 0 8.05892 0 17.9942V44.9923C0 48.2725 0.883293 51.3503 2.41886 53.9961L0 63L9.06395 60.5972C11.7274 62.1226 14.8257 63 18.1279 63C28.1295 63 36.2422 54.9411 36.2422 45.0058V18.0077C36.2422 13.0266 34.2038 8.53139 30.9289 5.26462ZM18.1143 38.0268C21.9872 38.0268 25.1399 41.1586 25.1399 45.0058C25.1399 48.853 21.9872 51.9713 18.1143 51.9713C14.2414 51.9713 11.0887 48.8395 11.0887 44.9923C11.0887 41.1451 14.2414 38.0268 18.1143 38.0268ZM18.1687 24.9732C18.4812 24.4738 18.7666 23.9473 19.0112 23.3938C19.7722 21.6929 20.1663 19.8706 20.1663 17.9942C20.1663 16.1178 19.7722 14.2955 19.0112 12.5946C18.7666 12.0546 18.4812 11.5282 18.1687 11.0152C22.0144 11.0557 25.1399 14.174 25.1399 17.9942C25.1399 21.8144 22.0144 24.9462 18.1687 24.9732Z" fill="white"/>
<path d="M52.9049 8.67969C57.3213 8.67969 59.7538 11.1635 59.7538 15.1457V15.6587H57.199V15.1187C57.199 12.5809 55.7314 10.934 52.9184 10.934C49.9288 10.934 48.1894 12.9859 48.1894 15.9827V20.0324C48.1894 23.1372 49.8881 25.081 52.9184 25.081C55.9624 25.081 57.199 23.4611 57.199 20.9233V20.3564H59.7538V20.8963C59.7538 24.8785 57.3485 27.3354 52.9049 27.3354C48.4884 27.3354 45.6211 24.6895 45.6211 19.8974V16.1042C45.6211 11.501 48.434 8.67969 52.9049 8.67969Z" fill="white"/>
<path d="M63.6664 8.73438C64.7535 8.73438 65.5553 9.50382 65.5553 10.5837C65.5553 11.6367 64.7535 12.4061 63.6664 12.4061C62.6064 12.4061 61.8047 11.6367 61.8047 10.5837C61.8047 9.50382 62.6064 8.73438 63.6664 8.73438ZM64.8758 26.9986H62.4434V14.404H64.8758V26.9986Z" fill="white"/>
<path d="M70.5028 14.4038V10.0977H72.9353V14.4038H76.8625V16.4557H72.9353V24.1772C72.9353 24.6901 73.1934 24.9466 73.6555 24.9466H76.1287V26.9984H72.6635C71.3997 26.9984 70.4892 26.148 70.4892 24.8656V16.4557H66.793V14.4038H70.5028V14.4038Z" fill="white"/>
<path d="M84.8636 14.0376C88.4783 14.0376 90.9787 16.4674 90.9787 20.3012V21.4486H81.0315C81.1674 23.6759 82.6894 25.2418 85.0131 25.2418C87.0786 25.2418 88.1386 24.1349 88.7093 22.9335L90.7477 24.0404C89.8916 25.5523 88.424 27.3477 85.0403 27.3477C81.1674 27.3477 78.5039 24.4724 78.5039 20.5981C78.5039 16.8319 81.1674 14.0376 84.8636 14.0376ZM88.4783 19.5047C88.356 17.3989 86.9563 16.1435 84.8636 16.1435C82.6622 16.1435 81.2761 17.4799 81.0451 19.5047H88.4783ZM87.595 9.04297L85.5023 12.3772H83.2873L84.7277 9.04297H87.595Z" fill="white"/>
<path d="M113.525 26.9967H111.147V24.9448H110.78C110.087 26.1462 108.851 27.3612 106.337 27.3612C103.035 27.3612 100.371 24.6209 100.371 20.6926C100.371 16.7644 103.035 14.0511 106.337 14.0511C108.837 14.0511 110.087 15.2255 110.78 16.4404H111.093V9.04297H113.525V26.9967V26.9967ZM102.831 20.6791C102.831 23.5004 104.557 25.1878 106.935 25.1878C109.34 25.1878 111.093 23.4464 111.093 20.6791C111.093 17.9118 109.34 16.184 106.935 16.184C104.57 16.1975 102.831 17.8578 102.831 20.6791Z" fill="white"/>
<path d="M126.49 26.9969V24.8101H126.123C125.525 26.0385 124.289 27.2264 121.815 27.2264C119.084 27.2264 116.828 25.3771 116.828 21.9888V14.4023H119.261V21.7593C119.261 23.9867 120.524 25.0936 122.617 25.0936C124.941 25.0936 126.436 23.6087 126.436 20.8144V14.4023H128.868V26.9969H126.49Z" fill="white"/>
<path d="M52.3437 36.0664C55.6459 36.0664 58.0511 38.1723 58.0511 41.5335C58.0511 44.9218 55.5915 47.0006 52.3437 47.0006H47.8321V54.0336H45.2773V36.0799H52.3437V36.0664ZM47.8185 44.7058H52.0855C54.2054 44.7058 55.4964 43.5044 55.4964 41.52C55.4964 39.5357 54.2054 38.3342 52.0855 38.3342H47.8185V44.7058Z" fill="white"/>
<path d="M65.5505 41.0742C68.9342 41.0742 71.0812 43.0181 71.0812 46.0554V54.0333H68.7031V52.0624H68.3498C67.684 53.1964 66.5153 54.3978 63.8382 54.3978C60.9981 54.3978 59.082 52.9129 59.082 50.6045C59.082 48.2692 60.835 47.1218 63.3218 46.8788L68.6624 46.3388V45.8934C68.6624 44.2735 67.5209 43.0721 65.4553 43.0721C63.3898 43.0721 62.1532 44.2735 61.433 45.8394L59.4218 44.6785C60.3594 43.0451 62.1668 41.0742 65.5505 41.0742ZM64.3138 52.3594C66.8958 52.3594 68.6488 50.8475 68.6488 48.4582V48.2827L63.8926 48.7687C62.425 48.9172 61.5688 49.5111 61.5688 50.564C61.5824 51.6305 62.6424 52.3594 64.3138 52.3594Z" fill="white"/>
<path d="M76.3036 41.4273V37.1211H78.736V41.4273H82.6633V43.4791H78.736V51.2006C78.736 51.7136 78.9942 51.97 79.4563 51.97H81.9295V54.0219H78.4643C77.2005 54.0219 76.29 53.1715 76.29 51.889V43.4791H72.5938V41.4273H76.3036V41.4273Z" fill="white"/>
<path d="M87.6067 43.1395H87.9736C88.4628 41.8571 89.4684 41.3711 91.1535 41.3711H92.6211V43.5039H90.6371C88.8569 43.5039 87.6746 44.4489 87.6746 46.4737V54.0197H85.2422V41.4251H87.6203V43.1395H87.6067Z" fill="white"/>
<path d="M95.9515 35.7578C97.0387 35.7578 97.8404 36.5273 97.8404 37.6072C97.8404 38.6601 97.0387 39.4296 95.9515 39.4296C94.8916 39.4296 94.0898 38.6601 94.0898 37.6072C94.0898 36.5273 94.8916 35.7578 95.9515 35.7578ZM97.161 54.022H94.7285V41.4274H97.161V54.022Z" fill="white"/>
<path d="M102.987 41.4248V43.2472H103.354C103.952 42.0188 105.053 41.1953 106.86 41.1953C108.64 41.1953 109.877 42.1132 110.393 43.4496H110.76C111.426 42.0592 112.622 41.1953 114.552 41.1953C117.025 41.1953 118.832 42.9367 118.832 45.4745V54.0194H116.4V45.677C116.4 44.2461 115.394 43.3147 113.818 43.3147C112.16 43.3147 110.923 44.3406 110.923 46.3384V54.0059H108.491V45.6635C108.491 44.2326 107.485 43.3012 105.909 43.3012C104.251 43.3012 103.014 44.3271 103.014 46.3249V53.9924H100.582V41.3978H102.987V41.4248Z" fill="white"/>
<path d="M127.884 41.0742C131.675 41.0742 134.448 43.8145 134.448 47.7427C134.448 51.671 131.689 54.3843 127.884 54.3843C124.12 54.3843 121.348 51.671 121.348 47.7427C121.348 43.8145 124.12 41.0742 127.884 41.0742ZM127.884 52.2244C130.384 52.2244 132.015 50.3751 132.015 47.7292C132.015 45.0294 130.384 43.2206 127.884 43.2206C125.411 43.2206 123.78 45.0969 123.78 47.7292C123.78 50.4291 125.411 52.2244 127.884 52.2244Z" fill="white"/>
<path d="M138.323 35.7578C139.41 35.7578 140.212 36.5273 140.212 37.6072C140.212 38.6601 139.41 39.4296 138.323 39.4296C137.263 39.4296 136.461 38.6601 136.461 37.6072C136.461 36.5273 137.263 35.7578 138.323 35.7578ZM139.532 54.022H137.1V41.4274H139.532V54.022Z" fill="white"/>
<path d="M145.362 41.4248V43.6116H145.729C146.327 42.3832 147.564 41.1953 150.037 41.1953C152.769 41.1953 155.024 43.0447 155.024 46.4329V54.0194H152.592V46.6624C152.592 44.4351 151.328 43.3282 149.235 43.3282C146.912 43.3282 145.417 44.8131 145.417 47.6074V54.0194H142.984V41.4248H145.362Z" fill="white"/>
<path d="M163.883 41.0742C167.498 41.0742 169.998 43.504 169.998 47.3378V48.4852H160.051C160.187 50.7125 161.709 52.2784 164.033 52.2784C166.098 52.2784 167.158 51.1715 167.729 49.9701L169.767 51.077C168.911 52.5889 167.444 54.3843 164.06 54.3843C160.187 54.3843 157.523 51.509 157.523 47.6348C157.523 43.8685 160.187 41.0742 163.883 41.0742ZM167.498 46.5278C167.376 44.422 165.976 43.1666 163.883 43.1666C161.682 43.1666 160.296 44.503 160.065 46.5278H167.498Z" fill="white"/>
<path d="M30.9289 5.26462C27.6539 2.01136 23.1151 0 18.1143 0C8.11271 0 0 8.05892 0 17.9942V44.9923C0 48.2725 0.883293 51.3503 2.41886 53.9961L0 63L9.06395 60.5972C11.7274 62.1226 14.8257 63 18.1279 63C28.1295 63 36.2422 54.9411 36.2422 45.0058V18.0077C36.2422 13.0266 34.2038 8.53139 30.9289 5.26462ZM34.2038 44.9923C34.2038 49.258 32.5324 53.2672 29.4884 56.291C26.458 59.3013 22.4085 60.9751 18.1143 60.9751C15.2878 60.9751 12.502 60.2327 10.0831 58.8423L9.34932 58.4238L8.53397 58.6398L2.8809 60.1382L4.38929 54.5226L4.60671 53.7127L4.18545 52.9837C2.78577 50.5674 2.03837 47.8001 2.03837 44.9923V17.9942C2.03837 13.7285 3.70983 9.7193 6.7538 6.69552C9.78417 3.68524 13.8201 2.02486 18.1143 2.02486C22.4085 2.02486 26.4444 3.68524 29.4884 6.70902C32.5324 9.71931 34.2038 13.742 34.2038 18.0077V44.9923Z" fill="white"/>
<path d="M18.1127 9.00391C16.8217 9.00391 15.5987 9.27389 14.4844 9.74635C16.713 11.7982 18.1127 14.741 18.1127 17.9943C18.1127 21.2475 16.713 24.1903 14.4844 26.2422C15.5987 26.7281 16.8217 26.9846 18.1127 26.9846C23.1135 26.9846 27.1766 22.9619 27.1766 17.9808C27.1766 12.9996 23.1271 9.00391 18.1127 9.00391ZM18.167 24.9733C18.4796 24.4738 18.7649 23.9473 19.0096 23.3939C19.7705 21.693 20.1646 19.8706 20.1646 17.9943C20.1646 16.1179 19.7705 14.2955 19.0096 12.5947C18.7649 12.0547 18.4796 11.5282 18.167 11.0153C22.0128 11.0558 25.1383 14.174 25.1383 17.9943C25.1383 21.8145 22.0128 24.9463 18.167 24.9733Z" fill="white"/>
<path d="M18.1127 9.00391C16.8217 9.00391 15.5987 9.27389 14.4844 9.74635C16.713 11.7982 18.1127 14.741 18.1127 17.9943C18.1127 21.2475 16.713 24.1903 14.4844 26.2422C15.5987 26.7281 16.8217 26.9846 18.1127 26.9846C23.1135 26.9846 27.1766 22.9619 27.1766 17.9808C27.1766 12.9996 23.1271 9.00391 18.1127 9.00391ZM18.167 24.9733C18.4796 24.4738 18.7649 23.9473 19.0096 23.3939C19.7705 21.693 20.1646 19.8706 20.1646 17.9943C20.1646 16.1179 19.7705 14.2955 19.0096 12.5947C18.7649 12.0547 18.4796 11.5282 18.167 11.0153C22.0128 11.0558 25.1383 14.174 25.1383 17.9943C25.1383 21.8145 22.0128 24.9463 18.167 24.9733Z" fill="white"/>
<path d="M18.1147 36.0039C13.1139 36.0039 9.05078 40.0266 9.05078 45.0078C9.05078 49.9889 13.1139 53.9981 18.1147 53.9981C23.1155 53.9981 27.1787 49.9754 27.1787 44.9943C27.1787 40.0131 23.1291 36.0039 18.1147 36.0039ZM18.1147 51.9733C14.2418 51.9733 11.0892 48.8415 11.0892 44.9943C11.0892 41.147 14.2418 38.0153 18.1147 38.0153C21.9876 38.0153 25.1403 41.147 25.1403 44.9943C25.1403 48.8415 21.9876 51.9733 18.1147 51.9733Z" fill="white"/>
<path d="M18.1147 36.0039C13.1139 36.0039 9.05078 40.0266 9.05078 45.0078C9.05078 49.9889 13.1139 53.9981 18.1147 53.9981C23.1155 53.9981 27.1787 49.9754 27.1787 44.9943C27.1787 40.0131 23.1291 36.0039 18.1147 36.0039ZM18.1147 51.9733C14.2418 51.9733 11.0892 48.8415 11.0892 44.9943C11.0892 41.147 14.2418 38.0153 18.1147 38.0153C21.9876 38.0153 25.1403 41.147 25.1403 44.9943C25.1403 48.8415 21.9876 51.9733 18.1147 51.9733Z" fill="white"/>
<path d="M30.9289 5.26462C27.6539 2.01136 23.1151 0 18.1143 0C8.11271 0 0 8.05892 0 17.9942V44.9923C0 48.2725 0.883293 51.3503 2.41886 53.9961L0 63L9.06395 60.5972C11.7274 62.1226 14.8257 63 18.1279 63C28.1295 63 36.2422 54.9411 36.2422 45.0058V18.0077C36.2422 13.0266 34.2038 8.53139 30.9289 5.26462ZM34.2038 44.9923C34.2038 49.258 32.5324 53.2672 29.4884 56.291C26.458 59.3013 22.4085 60.9751 18.1143 60.9751C15.2878 60.9751 12.502 60.2327 10.0831 58.8423L9.34932 58.4238L8.53397 58.6398L2.8809 60.1382L4.38929 54.5226L4.60671 53.7127L4.18545 52.9837C2.78577 50.5674 2.03837 47.8001 2.03837 44.9923V17.9942C2.03837 13.7285 3.70983 9.7193 6.7538 6.69552C9.78417 3.68524 13.8201 2.02486 18.1143 2.02486C22.4085 2.02486 26.4444 3.68524 29.4884 6.70902C32.5324 9.71931 34.2038 13.742 34.2038 18.0077V44.9923Z" fill="white"/>
</svg>
