<svg width="25" height="39" viewBox="0 0 25 39" fill="none" xmlns="http://www.w3.org/2000/svg">
<path d="M20.628 4.09985C18.5497 2.18127 15.6779 1 12.4957 1C6.14848 1 1 5.73302 1 11.568V27.424C1 29.3505 1.56055 31.1581 2.53506 32.712L1 38L6.75216 36.5888C8.44244 37.4847 10.4087 38 12.5043 38C18.8515 38 24 33.267 24 27.432V11.576C24 8.65052 22.7064 6.0105 20.628 4.09985ZM12.4957 31.5228C10.0379 31.5228 8.03712 29.6835 8.03712 27.424C8.03712 25.1646 10.0379 23.3253 12.4957 23.3253C14.9535 23.3253 16.9543 25.1646 16.9543 27.424C16.9543 29.6835 14.9535 31.5228 12.4957 31.5228ZM12.5302 15.6668C12.7285 15.3735 12.901 15.0643 13.0649 14.7392C13.5478 13.7403 13.7979 12.67 13.7979 11.568C13.7979 10.466 13.5478 9.39576 13.0649 8.39683C12.9096 8.07178 12.7285 7.77052 12.5302 7.46925C14.9708 7.49304 16.9543 9.32441 16.9543 11.568C16.9543 13.8196 14.9708 15.651 12.5302 15.6668Z" fill="white" fill-opacity="0.15"/>
<path d="M12.494 6.28906C11.6747 6.28906 10.8986 6.44762 10.1914 6.7251C11.6057 7.93016 12.494 9.65847 12.494 11.5691C12.494 13.4798 11.6057 15.2081 10.1914 16.4131C10.8986 16.6985 11.6747 16.8492 12.494 16.8492C15.6676 16.8492 18.2462 14.4866 18.2462 11.5612C18.2462 8.65161 15.6762 6.28906 12.494 6.28906ZM12.5285 15.6679C12.7268 15.3746 12.8993 15.0654 13.0632 14.7403C13.5461 13.7414 13.7962 12.6711 13.7962 11.5691C13.7962 10.4671 13.5461 9.39684 13.0632 8.39791C12.9079 8.07286 12.7268 7.7716 12.5285 7.47034C14.9691 7.49412 16.9526 9.32549 16.9526 11.5691C16.9526 13.8207 14.9691 15.652 12.5285 15.6679Z" fill="black"/>
<path d="M12.4943 22.1445C9.32074 22.1445 6.74219 24.515 6.74219 27.4325C6.74219 30.35 9.32074 32.7126 12.4943 32.7126C15.6679 32.7126 18.2465 30.35 18.2465 27.4246C18.2465 24.4991 15.6766 22.1445 12.4943 22.1445ZM12.4943 31.5234C10.0365 31.5234 8.03578 29.6841 8.03578 27.4246C8.03578 25.1651 10.0365 23.3258 12.4943 23.3258C14.9522 23.3258 16.9529 25.1651 16.9529 27.4246C16.9529 29.6841 14.9522 31.5234 12.4943 31.5234Z" fill="black"/>
<path d="M12.4957 2.1892C15.2208 2.1892 17.7822 3.16435 19.7139 4.94022C21.637 6.70816 22.7064 9.07071 22.7064 11.576V27.432C22.7064 29.9372 21.6457 32.2918 19.7139 34.0677C17.7908 35.8357 15.2208 36.8187 12.4957 36.8187C10.7019 36.8187 8.93401 36.3827 7.39033 35.5661L6.92463 35.3203L6.4072 35.4472L2.81965 36.3272L3.7769 33.0291L3.91489 32.5535L3.64754 32.1253C2.7679 30.6983 2.29359 29.0731 2.29359 27.424V11.568C2.29359 9.06278 3.35433 6.70816 5.28609 4.93229C7.20922 3.16435 9.77053 2.1892 12.4957 2.1892ZM12.4957 1C6.14848 1 1 5.73302 1 11.568V27.424C1 29.3505 1.56055 31.1581 2.53506 32.712L1 38L6.75216 36.5888C8.44244 37.4847 10.4087 38 12.5043 38C18.8515 38 24 33.267 24 27.432V11.576C24 8.65845 22.715 6.0105 20.628 4.09985C18.5497 2.18127 15.6779 1 12.4957 1Z" fill="white" stroke="white" stroke-width="0.25"/>
<path d="M12.494 6.28906C11.6747 6.28906 10.8986 6.44762 10.1914 6.7251C11.6057 7.93016 12.494 9.65847 12.494 11.5691C12.494 13.4798 11.6057 15.2081 10.1914 16.4131C10.8986 16.6985 11.6747 16.8492 12.494 16.8492C15.6676 16.8492 18.2462 14.4866 18.2462 11.5612C18.2462 8.65161 15.6762 6.28906 12.494 6.28906ZM12.5285 15.6679C12.7268 15.3746 12.8993 15.0654 13.0632 14.7403C13.5461 13.7414 13.7962 12.6711 13.7962 11.5691C13.7962 10.4671 13.5461 9.39684 13.0632 8.39791C12.9079 8.07286 12.7268 7.7716 12.5285 7.47034C14.9691 7.49412 16.9526 9.32549 16.9526 11.5691C16.9526 13.8207 14.9691 15.652 12.5285 15.6679Z" fill="white" stroke="white" stroke-width="0.25"/>
<path d="M12.4943 22.1445C9.32074 22.1445 6.74219 24.515 6.74219 27.4325C6.74219 30.35 9.32074 32.7126 12.4943 32.7126C15.6679 32.7126 18.2465 30.35 18.2465 27.4246C18.2465 24.4991 15.6766 22.1445 12.4943 22.1445ZM12.4943 31.5234C10.0365 31.5234 8.03578 29.6841 8.03578 27.4246C8.03578 25.1651 10.0365 23.3258 12.4943 23.3258C14.9522 23.3258 16.9529 25.1651 16.9529 27.4246C16.9529 29.6841 14.9522 31.5234 12.4943 31.5234Z" fill="white" stroke="white" stroke-width="0.25"/>
</svg>
