<svg width="22" height="30" viewBox="0 0 22 30" fill="none" xmlns="http://www.w3.org/2000/svg">
<path d="M20.9629 7.71021C19.4689 3.69181 15.5922 1 11.3162 1H11.3033C10.1828 1 9.12669 1.18031 8.14785 1.5023C5.58483 2.35235 3.61427 3.96228 2.31344 6.28059C1.16717 8.30267 0.767905 10.4922 1.12853 12.7461C1.41188 14.575 2.06873 16.4039 3.25365 18.6578C4.52872 21.092 6.13865 23.5005 8.32816 26.2567C8.8691 26.9264 9.44868 27.6348 10.1313 28.4075C10.5434 28.8841 10.9813 28.9871 11.2776 29C11.2904 29 11.2904 29 11.3033 29C11.5996 29 12.0503 28.897 12.4882 28.4333C12.5784 28.3431 12.6428 28.2659 12.7072 28.1886C15.6566 24.7369 17.8075 21.6587 19.4689 18.4775C20.3705 16.7387 20.9887 15.1546 21.3364 13.609C21.5168 12.7976 21.6069 11.9991 21.6069 11.2134C21.6069 10.0156 21.388 8.84361 20.9629 7.71021ZM20.0743 13.3257C19.7523 14.7553 19.1727 16.2493 18.3226 17.885C16.7127 20.9761 14.6134 23.977 11.7283 27.3514C11.6768 27.4158 11.6124 27.4802 11.548 27.5446C11.4192 27.6734 11.3291 27.7121 11.2904 27.7121C11.2518 27.7121 11.1745 27.6734 11.0844 27.5575C10.4275 26.7976 9.84794 26.115 9.33276 25.4581C7.20765 22.7663 5.63635 20.4223 4.39992 18.0653C3.2794 15.9273 2.66119 14.2272 2.4036 12.5529C2.09449 10.5823 2.44224 8.67617 3.44684 6.8988C4.58023 4.87672 6.30608 3.47286 8.55999 2.71297C9.39716 2.4425 10.3245 2.28795 11.3033 2.28795C13.1709 2.28795 14.9611 2.8804 16.4422 3.91076C17.9234 4.94112 19.0954 6.40938 19.7523 8.16099C20.3834 9.82245 20.4864 11.5097 20.0743 13.3257Z" fill="#0923A8" stroke="#0923A8" stroke-width="0.45"/>
<path d="M15.1952 7.41483C14.1391 6.37159 12.761 5.79202 11.3056 5.8049C9.81159 5.81778 8.4206 6.41023 7.36449 7.46635C6.33413 8.52247 5.78031 9.88769 5.79319 11.3302C5.83183 14.3698 8.29181 16.8297 11.3056 16.8297H11.3442C14.3709 16.804 16.8438 14.3311 16.8309 11.3044C16.8309 9.84906 16.2384 8.45807 15.1952 7.41483ZM11.2927 15.5418C8.9873 15.5418 7.09402 13.6614 7.06826 11.3173C7.05538 10.2226 7.4804 9.16644 8.27893 8.36792C9.09034 7.54363 10.1593 7.09285 11.2927 7.07997H11.3185C12.4261 7.07997 13.4694 7.51787 14.2808 8.3164C15.0922 9.11493 15.543 10.1839 15.543 11.3044V11.3173C15.543 13.6227 13.6497 15.516 11.3314 15.5418H11.2927Z" fill="#0923A8" stroke="#0923A8" stroke-width="0.45"/>
</svg>
