<svg width="29" height="31" viewBox="0 0 29 31" fill="none" xmlns="http://www.w3.org/2000/svg">
<path d="M1.2 7.1H0.6C0.3 7.1 0 6.8 0 6.5V0.6C0 0.3 0.3 0 0.6 0H6.5C6.8 0 7.1 0.3 7.1 0.6V1.2C7.1 1.5 6.8 1.8 6.5 1.8H2.4C2.1 1.8 1.8 2.1 1.8 2.4V6.4C1.8 6.8 1.6 7.1 1.2 7.1Z" fill="#0923A8"/>
<path d="M6.5 31H0.6C0.3 31 0 30.7 0 30.4V24.6C0 24.3 0.3 24 0.6 24H1.2C1.5 24 1.8 24.3 1.8 24.6V28.6C1.8 28.9 2.1 29.2 2.4 29.2H6.5C6.8 29.2 7.1 29.5 7.1 29.8V30.4C7.1 30.7 6.9 31 6.5 31Z" fill="#0923A8"/>
<path d="M28.4 7.1H27.8C27.5 7.1 27.2 6.8 27.2 6.5V2.5C27.2 2.2 26.9 1.9 26.6 1.9H22.6C22.3 1.9 22 1.6 22 1.3V0.6C22 0.3 22.3 0 22.6 0H28.4C28.7 0 29 0.3 29 0.6V6.4C29 6.8 28.7 7.1 28.4 7.1Z" fill="#0923A8"/>
<path d="M28.4 31H22.6C22.3 31 22 30.7 22 30.4V29.8C22 29.5 22.3 29.2 22.6 29.2H26.6C26.9 29.2 27.2 28.9 27.2 28.6V24.6C27.2 24.3 27.5 24 27.8 24H28.4C28.7 24 29 24.3 29 24.6V30.4C29 30.7 28.7 31 28.4 31Z" fill="#0923A8"/>
<path opacity="0.15" d="M20.2023 16.6V22.1H8.90234V17.4L9.80234 18L13.0023 16L16.1023 18L19.3023 16L20.2023 16.6Z" fill="#FE3F39"/>
<path d="M22.0016 17.7008V23.9008H7.10156V16.3008L8.00156 16.9008L8.90156 17.4008V22.1008H20.2016V16.6008L21.1016 17.2008L22.0016 17.7008Z" fill="#FE3F39"/>
<path d="M22.0016 7V14.5L21.1016 14L20.2016 13.4V8.8H8.90156V14.3L8.00156 13.7L7.10156 13.2V7H22.0016Z" fill="#FE3F39"/>
<path opacity="0.15" d="M20.2023 8.80078V13.4008L19.3023 12.8008L16.1023 14.8008L13.0023 12.8008L9.80234 14.8008L8.90234 14.3008V8.80078H20.2023Z" fill="#FE3F39"/>
</svg>
