<svg width="214" height="130" viewBox="0 0 214 130" fill="none" xmlns="http://www.w3.org/2000/svg">
<path fill-rule="evenodd" clip-rule="evenodd" d="M106.969 85H107.031C111.901 85.0003 115.848 85.8308 115.847 86.8549C115.845 87.8791 111.896 88.7091 107.026 88.7088H106.974C102.104 88.7091 98.1545 87.8791 98.1532 86.8549C98.1518 85.8308 102.099 85.0003 106.969 85ZM85.0647 87.2857C86.5676 88.2599 84.0303 89.3058 79.3976 89.6218L79.3491 89.6251C74.7172 89.9417 69.7418 89.4088 68.2363 88.4348C66.7307 87.4608 69.2651 86.4146 73.897 86.098L73.9551 86.094C78.5879 85.778 83.5618 86.3115 85.0647 87.2857ZM128.935 87.2857C130.438 86.3115 135.412 85.778 140.045 86.094L140.103 86.098C144.735 86.4146 147.269 87.4608 145.764 88.4348C144.258 89.4088 139.283 89.9417 134.651 89.6251L134.602 89.6218C129.97 89.3058 127.432 88.2599 128.935 87.2857ZM157.558 89.7018C160.423 88.8736 165.939 88.6905 169.877 89.2929L169.927 89.3005C173.864 89.9034 174.731 91.0632 171.864 91.8911C168.997 92.719 163.481 92.9014 159.544 92.2986L159.503 92.2923C155.564 91.6898 154.694 90.5301 157.558 89.7018ZM56.4416 89.7018C59.3064 90.5301 58.4358 91.6898 54.4971 92.2923L54.4559 92.2986C50.5187 92.9014 45.0029 92.719 42.1358 91.8911C39.2687 91.0632 40.1362 89.9034 44.0733 89.3005L44.1226 89.2929C48.0613 88.6905 53.5767 88.8736 56.4416 89.7018ZM181.229 93.8603C185.166 93.2574 190.682 93.4398 193.549 94.2677L193.585 94.2781C196.45 95.1064 195.579 96.2661 191.64 96.8686C187.702 97.471 182.186 97.2879 179.321 96.4597L179.291 96.451C176.424 95.6231 177.292 94.4632 181.229 93.8603ZM32.7712 93.8603C36.7083 94.4632 37.5758 95.6231 34.7087 96.451L34.6787 96.4597C31.8139 97.2879 26.2985 97.471 22.3597 96.8686C18.421 96.2661 17.5504 95.1064 20.4152 94.2781L20.4511 94.2678C23.3182 93.4399 28.8341 93.2574 32.7712 93.8603ZM16.3343 99.3487C20.9662 99.6653 23.5006 100.712 21.995 101.686L21.9793 101.696C20.4764 102.67 15.5025 103.203 10.8697 102.887C6.23698 102.571 3.69972 101.525 5.20261 100.551L5.22149 100.539C6.72704 99.5651 11.7024 99.0322 16.3343 99.3487ZM197.666 99.3487C202.298 99.0322 207.273 99.5651 208.779 100.539L208.797 100.551C210.3 101.525 207.763 102.571 203.13 102.887C198.498 103.203 193.524 102.67 192.021 101.696L192.005 101.686C190.499 100.712 193.034 99.6653 197.666 99.3487ZM8.82116 105.64C13.6916 105.64 17.6387 106.47 17.6374 107.495V107.505C17.6387 108.53 13.6916 109.36 8.82116 109.36C3.95073 109.361 0.00136637 108.531 0 107.506V107.494C0.00136637 106.469 3.95073 105.639 8.82116 105.64ZM205.179 105.64C210.049 105.639 213.999 106.469 214 107.494V107.506C213.999 108.531 210.049 109.361 205.179 109.36C200.308 109.36 196.361 108.53 196.363 107.505V107.495C196.361 106.47 200.308 105.64 205.179 105.64ZM10.8697 112.113C15.5025 111.797 20.4764 112.33 21.9793 113.304L21.995 113.314C23.5006 114.288 20.9662 115.335 16.3343 115.651C11.7024 115.968 6.72704 115.435 5.22149 114.461L5.20261 114.449C3.69972 113.475 6.23698 112.429 10.8697 112.113ZM203.13 112.113C207.763 112.429 210.3 113.475 208.797 114.449L208.779 114.461C207.273 115.435 202.298 115.968 197.666 115.651C193.034 115.335 190.499 114.288 192.005 113.314L192.021 113.304C193.524 112.33 198.498 111.797 203.13 112.113ZM191.64 118.131C195.579 118.734 196.45 119.894 193.585 120.722L193.549 120.732C190.682 121.56 185.166 121.743 181.229 121.14C177.292 120.537 176.424 119.377 179.291 118.549L179.321 118.54C182.186 117.712 187.702 117.529 191.64 118.131ZM22.3597 118.131C26.2985 117.529 31.8139 117.712 34.6787 118.54L34.7087 118.549C37.5758 119.377 36.7083 120.537 32.7712 121.14C28.8341 121.743 23.3182 121.56 20.4511 120.732L20.4152 120.722C17.5504 119.894 18.421 118.734 22.3597 118.131ZM42.1358 123.109C45.0029 122.281 50.5187 122.099 54.4559 122.701L54.4971 122.708C58.4358 123.31 59.3064 124.47 56.4416 125.298C53.5767 126.126 48.0614 126.309 44.1226 125.707L44.0733 125.7C40.1362 125.097 39.2687 123.937 42.1358 123.109ZM171.864 123.109C174.731 123.937 173.864 125.097 169.927 125.7L169.877 125.707C165.939 126.309 160.423 126.126 157.558 125.298C154.694 124.47 155.564 123.31 159.503 122.708L159.544 122.701C163.481 122.099 168.997 122.281 171.864 123.109ZM68.2363 126.565C69.7418 125.591 74.7172 125.058 79.3491 125.375L79.3975 125.378C84.0303 125.694 86.5675 126.74 85.0647 127.714C83.5618 128.688 78.5879 129.222 73.9551 128.906L73.897 128.902C69.2651 128.585 66.7307 127.539 68.2363 126.565ZM145.764 126.565C147.269 127.539 144.735 128.585 140.103 128.902L140.045 128.906C135.412 129.222 130.438 128.688 128.935 127.714C127.432 126.74 129.97 125.694 134.602 125.378L134.651 125.375C139.283 125.058 144.258 125.591 145.764 126.565ZM98.1531 128.145C98.1545 127.121 102.104 126.291 106.974 126.291H107.026C111.896 126.291 115.845 127.121 115.847 128.145C115.848 129.169 111.901 130 107.031 130H106.969C102.099 130 98.1518 129.169 98.1531 128.145Z" fill="url(#paint0_linear)"/>
<path d="M128.456 9.12643C123.007 4.09677 115.479 1 107.137 1C90.497 1 77 13.4079 77 28.7047V70.2721C77 75.3225 78.4695 80.0612 81.0242 84.1348L77 97.9975L92.0796 94.298C96.5108 96.6466 101.665 97.9975 107.159 97.9975C123.799 97.9975 137.296 85.5896 137.296 70.2928V28.7255C137.296 21.0563 133.905 14.1353 128.456 9.12643ZM107.137 81.0172C100.693 81.0172 95.4482 76.1954 95.4482 70.2721C95.4482 64.3487 100.693 59.5269 107.137 59.5269C113.58 59.5269 118.825 64.3487 118.825 70.2721C118.825 76.1954 113.58 81.0172 107.137 81.0172ZM107.227 39.4498C107.747 38.6808 108.199 37.8703 108.629 37.0182C109.895 34.3994 110.55 31.5936 110.55 28.7047C110.55 25.8157 109.895 23.0099 108.629 20.3912C108.222 19.5391 107.747 18.7493 107.227 17.9595C113.625 18.0218 118.825 22.8229 118.825 28.7047C118.825 34.6072 113.625 39.4083 107.227 39.4498Z" fill="#2E44B5"/>
<path d="M107.134 14.8633C104.986 14.8633 102.952 15.279 101.098 16.0064C104.805 19.1655 107.134 23.6964 107.134 28.7052C107.134 33.7141 104.805 38.2449 101.098 41.4041C102.952 42.1523 104.986 42.5472 107.134 42.5472C115.454 42.5472 122.214 36.3536 122.214 28.6844C122.214 21.0568 115.476 14.8633 107.134 14.8633ZM107.224 39.4504C107.744 38.6814 108.197 37.8708 108.626 37.0187C109.892 34.4 110.548 31.5942 110.548 28.7052C110.548 25.8163 109.892 23.0105 108.626 20.3917C108.219 19.5396 107.744 18.7498 107.224 17.9601C113.623 18.0224 118.822 22.8234 118.822 28.7052C118.822 34.6078 113.623 39.4088 107.224 39.4504Z" fill="black"/>
<path d="M107.134 56.4297C98.8145 56.4297 92.0547 62.644 92.0547 70.2924C92.0547 77.9408 98.8145 84.1343 107.134 84.1343C115.454 84.1343 122.214 77.9408 122.214 70.2716C122.214 62.6024 115.477 56.4297 107.134 56.4297ZM107.134 81.0168C100.691 81.0168 95.4459 76.195 95.4459 70.2716C95.4459 64.3483 100.691 59.5265 107.134 59.5265C113.578 59.5265 118.823 64.3483 118.823 70.2716C118.823 76.195 113.578 81.0168 107.134 81.0168Z" fill="black"/>
<path d="M107.137 4.11755C114.281 4.11755 120.995 6.67395 126.06 11.3295C131.101 15.9643 133.905 22.1578 133.905 28.7255V70.2928C133.905 76.8605 131.124 83.0333 126.06 87.6888C121.018 92.3236 114.281 94.9007 107.137 94.9007C102.434 94.9007 97.7994 93.7576 93.7526 91.6169L92.5318 90.9726L91.1753 91.3052L81.7703 93.6122L84.2798 84.9661L84.6415 83.7191L83.9407 82.5968C81.6347 78.8557 80.3912 74.5951 80.3912 70.2721V28.7047C80.3912 22.137 83.172 15.9643 88.2362 11.3087C93.2778 6.67395 99.9924 4.11755 107.137 4.11755ZM107.137 1C90.497 1 77 13.4079 77 28.7047V70.2721C77 75.3225 78.4695 80.0612 81.0242 84.1348L77 97.9975L92.0796 94.298C96.5108 96.6466 101.665 97.9975 107.159 97.9975C123.799 97.9975 137.296 85.5897 137.296 70.2928V28.7255C137.296 21.0771 133.927 14.1353 128.456 9.12643C123.007 4.09677 115.479 1 107.137 1Z" fill="white" stroke="white" stroke-width="0.25"/>
<path d="M107.134 14.8633C104.986 14.8633 102.952 15.279 101.098 16.0064C104.805 19.1655 107.134 23.6964 107.134 28.7052C107.134 33.7141 104.805 38.2449 101.098 41.4041C102.952 42.1523 104.986 42.5472 107.134 42.5472C115.454 42.5472 122.214 36.3536 122.214 28.6844C122.214 21.0568 115.476 14.8633 107.134 14.8633ZM107.224 39.4504C107.744 38.6814 108.197 37.8708 108.626 37.0187C109.892 34.4 110.548 31.5942 110.548 28.7052C110.548 25.8163 109.892 23.0105 108.626 20.3917C108.219 19.5396 107.744 18.7498 107.224 17.9601C113.623 18.0224 118.822 22.8234 118.822 28.7052C118.822 34.6078 113.623 39.4088 107.224 39.4504Z" fill="white" stroke="white" stroke-width="0.25"/>
<path d="M107.13 56.4297C98.8106 56.4297 92.0508 62.644 92.0508 70.2924C92.0508 77.9408 98.8106 84.1343 107.13 84.1343C115.45 84.1343 122.21 77.9408 122.21 70.2716C122.21 62.6024 115.473 56.4297 107.13 56.4297ZM107.13 81.0168C100.687 81.0168 95.442 76.195 95.442 70.2716C95.442 64.3483 100.687 59.5265 107.13 59.5265C113.574 59.5265 118.819 64.3483 118.819 70.2716C118.819 76.195 113.574 81.0168 107.13 81.0168Z" fill="white" stroke="white" stroke-width="0.25"/>
<defs>
<linearGradient id="paint0_linear" x1="107" y1="85" x2="107" y2="130" gradientUnits="userSpaceOnUse">
<stop stop-color="white" stop-opacity="0.5"/>
<stop offset="1" stop-color="white"/>
</linearGradient>
</defs>
</svg>
