<svg width="24" height="27" viewBox="0 0 24 27" fill="none" xmlns="http://www.w3.org/2000/svg">
<g clip-path="url(#clip0)">
<path d="M24 1.5V26H15.4286V14.8065C15.4286 12.8816 13.8943 11.3226 12 11.3226C10.1057 11.3226 8.57143 12.8816 8.57143 14.8065V26H0V1.5H24Z" fill="#0923A8" fill-opacity="0.15"/>
<path d="M22.2857 6.0974V25.2587H17.1429V14.8768C17.1429 13.4832 16.6114 12.1593 15.6514 11.1577C14.6743 10.1387 13.38 9.58128 12 9.58128C11.9657 9.58128 11.9314 9.58128 11.9057 9.58128C10.5514 9.6074 9.28286 10.1648 8.34 11.1403C7.38 12.1245 6.85714 13.431 6.85714 14.8071V25.2587H1.71429V6.0974H22.2857ZM24 4.35547H0V26.1297C0 26.6087 0.385714 27.0006 0.857143 27.0006H7.71429C8.18571 27.0006 8.57143 26.6087 8.57143 26.1297V14.8071C8.57143 12.9084 10.0714 11.358 11.9314 11.3232C11.9571 11.3232 11.9743 11.3232 11.9914 11.3232C13.8857 11.3232 15.42 12.9432 15.42 14.8768V26.1297C15.42 26.6087 15.8057 27.0006 16.2771 27.0006H23.1343C23.6057 27.0006 23.9914 26.6087 23.9914 26.1297V4.35547H24Z" fill="#0923A8"/>
<path d="M22.2857 1.74194V4.35484H1.71429V1.74194H22.2857ZM23.1429 0H0.857143C0.385714 0 0 0.391935 0 0.870968V6.09677H24V0.870968C24 0.391935 23.6143 0 23.1429 0Z" fill="#0923A8"/>
<path fill-rule="evenodd" clip-rule="evenodd" d="M12.8588 6.09766V10.4525H11.1445V6.09766H12.8588Z" fill="#0923A8"/>
<path fill-rule="evenodd" clip-rule="evenodd" d="M23.1423 15.6755H16.2852V13.9336H23.1423V15.6755Z" fill="#0923A8"/>
<path fill-rule="evenodd" clip-rule="evenodd" d="M7.71261 15.6755H0.855469V13.9336H7.71261V15.6755Z" fill="#0923A8"/>
<path fill-rule="evenodd" clip-rule="evenodd" d="M3.32461 4.75781L9.39318 10.9156L8.18185 12.1482L2.11328 5.99042L3.32461 4.75781Z" fill="#0923A8"/>
<path fill-rule="evenodd" clip-rule="evenodd" d="M21.96 5.90361L16.0286 11.9307L14.8164 10.699L20.7478 4.67188L21.96 5.90361Z" fill="#0923A8"/>
<path fill-rule="evenodd" clip-rule="evenodd" d="M22.6267 20.906H15.7695V19.1641H22.6267V20.906Z" fill="#0923A8"/>
<path fill-rule="evenodd" clip-rule="evenodd" d="M7.20089 20.906H0.34375V19.1641H7.20089V20.906Z" fill="#0923A8"/>
</g>
<defs>
<clipPath id="clip0">
<rect width="24" height="27" fill="white"/>
</clipPath>
</defs>
</svg>
