<svg width="28" height="28" viewBox="0 0 28 28" fill="none" xmlns="http://www.w3.org/2000/svg">
<path d="M1.1344 6.57954H0.567201C0.249569 6.57954 0 6.32997 0 6.01233V0.567201C0 0.249569 0.249569 0 0.567201 0H6.06905C6.38669 0 6.63625 0.249569 6.63625 0.567201V1.1344C6.63625 1.45204 6.38669 1.7016 6.06905 1.7016H2.26881C1.95117 1.7016 1.7016 1.95117 1.7016 2.26881V6.01233C1.7016 6.32997 1.45204 6.57954 1.1344 6.57954Z" fill="#0923A8"/>
<path d="M6.06905 27.0014H0.567201C0.249569 27.0014 0 26.7518 0 26.4342V20.9891C0 20.6714 0.249569 20.4219 0.567201 20.4219H1.1344C1.45204 20.4219 1.7016 20.6714 1.7016 20.9891V24.7326C1.7016 25.0502 1.95117 25.2998 2.26881 25.2998H6.06905C6.38669 25.2998 6.63625 25.5494 6.63625 25.867V26.4342C6.63625 26.7518 6.38669 27.0014 6.06905 27.0014Z" fill="#0923A8"/>
<path d="M26.4361 6.57954H25.8689C25.5512 6.57954 25.3017 6.32997 25.3017 6.01233V2.26881C25.3017 1.95117 25.0521 1.7016 24.7345 1.7016H21.0477C20.73 1.7016 20.4805 1.45204 20.4805 1.1344V0.567201C20.4805 0.249569 20.73 0 21.0477 0H26.4361C26.7537 0 27.0033 0.249569 27.0033 0.567201V6.01233C27.0033 6.32997 26.7537 6.57954 26.4361 6.57954Z" fill="#0923A8"/>
<path d="M26.4361 27.0014H21.0477C20.73 27.0014 20.4805 26.7518 20.4805 26.4342V25.867C20.4805 25.5494 20.73 25.2998 21.0477 25.2998H24.7345C25.0521 25.2998 25.3017 25.0502 25.3017 24.7326V20.9891C25.3017 20.6714 25.5512 20.4219 25.8689 20.4219H26.4361C26.7537 20.4219 27.0033 20.6714 27.0033 20.9891V26.4342C27.0033 26.7518 26.7537 27.0014 26.4361 27.0014Z" fill="#0923A8"/>
<path d="M19.6014 7.39453V19.4842H7.51172V7.39453H19.6014Z" fill="#0923A8" fill-opacity="0.15" stroke="#0923A8" stroke-width="1.75"/>
</svg>
