<svg width="18" height="18" viewBox="0 0 18 18" fill="none" xmlns="http://www.w3.org/2000/svg">
<path d="M12.8935 10.8766C14.1206 12.1026 15.34 13.3209 16.5594 14.5469C17.0624 15.0495 17.1996 15.6967 16.9329 16.245C16.5213 17.0978 15.3781 17.41 14.555 16.58C13.3508 15.3693 12.139 14.1662 10.9349 12.9554C10.912 12.9326 10.9044 12.9021 10.8891 12.8793C7.36804 15.1409 3.27535 13.8387 1.35476 11.166C-0.748742 8.24956 -0.367672 4.30515 2.25409 1.87606C4.68531 -0.377885 8.38931 -0.674858 11.2092 1.38872C13.9758 3.42946 15.058 7.48048 12.8935 10.8766ZM11.6055 7.03121C11.6208 4.51836 9.57062 2.45478 7.04032 2.43955C4.51002 2.43194 2.44462 4.4879 2.437 7.02359C2.42938 9.53644 4.47953 11.5924 7.01746 11.6C9.53251 11.6153 11.5903 9.5669 11.6055 7.03121Z" fill="#0923A8"/>
</svg>
