<svg width="51" height="56" viewBox="0 0 51 56" fill="none" xmlns="http://www.w3.org/2000/svg">
<rect width="51" height="56" fill="white"/>
<path d="M24.242 45.9142C25.0231 45.1332 26.2894 45.1332 27.0705 45.9142L31.3131 50.1569L26.7169 54.753C26.1311 55.3388 25.1814 55.3388 24.5956 54.753L19.9994 50.1569L24.242 45.9142Z" fill="white"/>
<circle cx="25.5" cy="25.5" r="25.5" fill="white"/>
<circle cx="25.5" cy="25.5" r="21.5" fill="#FF4D00"/>
<path d="M32.6923 30.3819V31.6896H18.3077V30.3819H32.6923ZM34 29.0742H17V32.9973H34V29.0742Z" fill="white"/>
<path d="M26.1544 27.7725V29.0802H24.8468V27.7725H26.1544ZM27.4621 26.4648H23.5391V30.3879H27.4621V26.4648Z" fill="white"/>
<path d="M30.0787 25.1514V26.4591H20.9249V25.1514H30.0787ZM31.3864 23.8438H19.6172V27.7668H31.3864V23.8438Z" fill="white"/>
<path d="M25.5006 19.9249C25.8602 19.9249 26.1544 20.2191 26.1544 20.5787V23.848H24.8468V20.5787C24.8468 20.2191 25.141 19.9249 25.5006 19.9249ZM25.5006 18.6172C24.4152 18.6172 23.5391 19.4933 23.5391 20.5787V25.1556H27.4621V20.5787C27.4621 19.4933 26.586 18.6172 25.5006 18.6172Z" fill="white"/>
<path d="M25.4976 16C25.138 16 24.8438 16.2942 24.8438 16.6538C24.8438 17.0135 25.138 17.3077 25.4976 17.3077C25.8572 17.3077 26.1514 17.0135 26.1514 16.6538C26.1514 16.2942 25.8572 16 25.4976 16Z" fill="white"/>
<path d="M21.5796 18.6172C21.22 18.6172 20.9258 18.9114 20.9258 19.271C20.9258 19.6306 21.22 19.9249 21.5796 19.9249C21.9392 19.9249 22.2335 19.6306 22.2335 19.271C22.2335 18.9114 21.9392 18.6172 21.5796 18.6172Z" fill="white"/>
<path d="M29.4195 18.6172C29.0599 18.6172 28.7656 18.9114 28.7656 19.271C28.7656 19.6306 29.0599 19.9249 29.4195 19.9249C29.7791 19.9249 30.0733 19.6306 30.0733 19.271C30.0733 18.9114 29.7791 18.6172 29.4195 18.6172Z" fill="white"/>
</svg>
