<svg width="51" height="56" viewBox="0 0 51 56" fill="none" xmlns="http://www.w3.org/2000/svg">
<rect width="51" height="56" fill="white"/>
<path d="M24.242 45.9142C25.0231 45.1332 26.2894 45.1332 27.0705 45.9142L31.3131 50.1569L26.7169 54.753C26.1311 55.3388 25.1814 55.3388 24.5956 54.753L19.9994 50.1569L24.242 45.9142Z" fill="white"/>
<circle cx="25.5" cy="25.5" r="25.5" fill="white"/>
<circle cx="25.5" cy="25.5" r="21.5" fill="#0923A8"/>
<path d="M26.6028 19.6719H24.5547V35.0196H26.6028V19.6719Z" fill="#0923A8"/>
<path d="M26.091 20.1833V34.5079H25.067V20.1833H26.091V20.1833ZM27.1151 19.1602H24.043V35.5311H27.1151V19.1602Z" fill="white"/>
<path d="M28.6559 35.0156H22.5117V37.062H28.6559V35.0156Z" fill="#0923A8"/>
<path d="M28.1442 35.5271V36.5503H23.024V35.5271H28.1442ZM29.1682 34.5039H22V37.5735H29.1682V34.5039Z" fill="white"/>
<path d="M27.6274 32.9727H23.5312V35.019H27.6274V32.9727Z" fill="#0923A8"/>
<path d="M27.1157 33.4841V34.5073H24.0436V33.4841H27.1157ZM28.1397 32.4609H23.0195V35.5305H28.1397V32.4609Z" fill="white"/>
<path d="M27.119 18.6523H24.0469V20.6987H27.119V18.6523Z" fill="#0923A8"/>
<path d="M26.6073 19.1638V20.187H24.5592V19.1638H26.6073ZM27.6313 18.1406H23.5352V21.2102H27.6313V18.1406Z" fill="white"/>
<path d="M25.5849 13.721L24.1367 15.168L25.5849 16.615L27.0331 15.168L25.5849 13.721Z" fill="#0923A8"/>
<path d="M25.585 14.4478L26.307 15.1691L25.585 15.8956L24.8631 15.1691L25.585 14.4478ZM25.585 13L23.4141 15.1691L25.585 17.3434L27.756 15.1743L25.585 13Z" fill="white"/>
</svg>
