<svg width="51" height="56" viewBox="0 0 51 56" fill="none" xmlns="http://www.w3.org/2000/svg">
<rect width="51" height="56" fill="white"/>
<path d="M24.242 45.9142C25.0231 45.1332 26.2894 45.1332 27.0705 45.9142L31.3131 50.1569L26.7169 54.753C26.1311 55.3388 25.1814 55.3388 24.5956 54.753L19.9994 50.1569L24.242 45.9142Z" fill="white"/>
<circle cx="25.5" cy="25.5" r="25.5" fill="white"/>
<circle cx="25.5" cy="25.5" r="21.5" fill="#0923A8"/>
<path d="M34.8645 23.2445V33.4605H16.1351V23.2445H34.8645ZM35.9996 22.1094H15V34.5956H35.9996V22.1094Z" fill="white"/>
<path d="M34.8645 20.4046V22.1073H16.1351V20.4046H34.8645ZM35.9996 19.2695H15V23.2424H35.9996V19.2695Z" fill="white"/>
<path fill-rule="evenodd" clip-rule="evenodd" d="M18.975 23.2422V34.5933H17.8398V23.2422H18.975Z" fill="white"/>
<path fill-rule="evenodd" clip-rule="evenodd" d="M21.8109 23.2422V34.5933H20.6758V23.2422H21.8109Z" fill="white"/>
<path fill-rule="evenodd" clip-rule="evenodd" d="M24.6507 23.2422V34.5933H23.5156V23.2422H24.6507Z" fill="white"/>
<path fill-rule="evenodd" clip-rule="evenodd" d="M27.4867 23.2422V34.5933H26.3516V23.2422H27.4867Z" fill="white"/>
<path fill-rule="evenodd" clip-rule="evenodd" d="M30.3226 23.2422V34.5933H29.1875V23.2422H30.3226Z" fill="white"/>
<path fill-rule="evenodd" clip-rule="evenodd" d="M33.1625 23.2422V34.5933H32.0273V23.2422H33.1625Z" fill="white"/>
<path d="M15.5676 18.1351C15.881 18.1351 16.1351 17.881 16.1351 17.5676C16.1351 17.2541 15.881 17 15.5676 17C15.2541 17 15 17.2541 15 17.5676C15 17.881 15.2541 18.1351 15.5676 18.1351Z" fill="white"/>
<path d="M18.4074 18.1351C18.7209 18.1351 18.975 17.881 18.975 17.5676C18.975 17.2541 18.7209 17 18.4074 17C18.0939 17 17.8398 17.2541 17.8398 17.5676C17.8398 17.881 18.0939 18.1351 18.4074 18.1351Z" fill="white"/>
<path d="M21.2433 18.1351C21.5568 18.1351 21.8109 17.881 21.8109 17.5676C21.8109 17.2541 21.5568 17 21.2433 17C20.9299 17 20.6758 17.2541 20.6758 17.5676C20.6758 17.881 20.9299 18.1351 21.2433 18.1351Z" fill="white"/>
<path d="M24.0832 18.1351C24.3966 18.1351 24.6507 17.881 24.6507 17.5676C24.6507 17.2541 24.3966 17 24.0832 17C23.7697 17 23.5156 17.2541 23.5156 17.5676C23.5156 17.881 23.7697 18.1351 24.0832 18.1351Z" fill="white"/>
<path d="M26.9191 18.1351C27.2326 18.1351 27.4867 17.881 27.4867 17.5676C27.4867 17.2541 27.2326 17 26.9191 17C26.6057 17 26.3516 17.2541 26.3516 17.5676C26.3516 17.881 26.6057 18.1351 26.9191 18.1351Z" fill="white"/>
<path d="M29.7551 18.1351C30.0685 18.1351 30.3226 17.881 30.3226 17.5676C30.3226 17.2541 30.0685 17 29.7551 17C29.4416 17 29.1875 17.2541 29.1875 17.5676C29.1875 17.881 29.4416 18.1351 29.7551 18.1351Z" fill="white"/>
<path d="M32.5949 18.1351C32.9084 18.1351 33.1625 17.881 33.1625 17.5676C33.1625 17.2541 32.9084 17 32.5949 17C32.2814 17 32.0273 17.2541 32.0273 17.5676C32.0273 17.881 32.2814 18.1351 32.5949 18.1351Z" fill="white"/>
<path d="M35.4308 18.1351C35.7443 18.1351 35.9984 17.881 35.9984 17.5676C35.9984 17.2541 35.7443 17 35.4308 17C35.1174 17 34.8633 17.2541 34.8633 17.5676C34.8633 17.881 35.1174 18.1351 35.4308 18.1351Z" fill="white"/>
</svg>
